<svg id="Layer_1" data-name="Layer 1" xmlns="http://www.w3.org/2000/svg" viewBox="0 0 248.96 262.74"><defs><style>.cls-1{fill:#fff;}</style></defs><path d="M411.47,342.17c40.35-11.33,51.13-38.51,51.13-67.07,0-31.32-30.49-61.45-103.84-61.45H220.54l33.14,20.12V454.09l-29.79,22.3h156c78.8,0,89.61-45.75,89.61-72.24C469.5,376.4,452.09,342.41,411.47,342.17Z" transform="translate(-220.54 -213.65)"/><path class="cls-1" d="M387.71,332c5.53,1,11.21-.28,16.58-1.92,21.75-6.63,46.41-27.55,34.79-57.29C433.9,259.54,416,255.13,403.45,252c-37.14-9.18-65.15,3.42-88.91,30.54-13.16,15-13.8,34.18-19,47.92-2.22,5.93-10.65,9.06-10.65,9.06s18.86,25.53,17.26,28.94C299.56,374,292,379.9,292,379.9c6.42,6.59,27.07,19.47,30.28,39.4s.84,32.11.84,32.11l11.61-3.53-3.49-36,7.93-3.11,3.45,36.7,10.69-3.25L349.87,406l7.93-3.1,3.48,37L372,436.58,368.42,400l7.93-3.1,3.51,37.24,11.62-4.26a257.55,257.55,0,0,1-2.87-28.27c-.25-5.35,0-14.1,6.74-16.61,10-3.71,21-9.55,29.4-18.32,10.79-11.22-13.38-9.3-32.53-17.56-10.93-4.7-20.12-16.23-21.85-27.77C375,326.49,380.9,330.87,387.71,332Zm-34.6,5.24c-.88,5.68-3.06,24.59-11.36,32.87s-17.61,8.17-24.17.52c-1.73-2-7.79-12-10.48-17a12.54,12.54,0,0,0-3.29-3.91,12,12,0,0,1-4.29-6.33.77.77,0,0,1,.55-.94.75.75,0,0,1,.57.07c2.75,1.58,8.83,4.55,12.8,2.64,5.29-2.54,20.29-32.19,32.14-36.08s8.44,22.5,7.53,28.18Z" transform="translate(-220.54 -213.65)"/></svg>