<svg id="Layer_1" data-name="Layer 1" xmlns="http://www.w3.org/2000/svg" viewBox="0 0 690.05 690.05"><defs><style>.cls-1{fill:#fff;}.cls-2{fill:#000;}</style></defs><path class="cls-1" d="M400,105a295,295,0,1,0,208.61,86.41A293.06,293.06,0,0,0,400,105Z" transform="translate(-54.98 -54.98)"/><path class="cls-2" d="M137.75,467.7l-5.2-20.44-7.14-1.39c-.94-.2-1.07-.4-1.28-1.24L122,436.3a.51.51,0,0,1,.35-.68,2.46,2.46,0,0,1,.91.06l45.7,9.4,1.85,7.28-35.65,30.09a2.44,2.44,0,0,1-.77.49.51.51,0,0,1-.64-.43l-2.11-8.33c-.22-.84-.2-1.07.53-1.71Zm3.08-19,3.52,13.87,6.81-5.76A75.19,75.19,0,0,1,157.9,452l-.1-.42a75.48,75.48,0,0,1-8.24-1Z" transform="translate(-54.98 -54.98)"/><path class="cls-2" d="M195,512.12a.94.94,0,0,1,1.17.36l3.78,7.15a1,1,0,0,1-.36,1.18L180.34,531c-12.38,6.56-23.08,2.25-29.3-9.5s-3.76-23,8.63-29.57l19.22-10.17a.94.94,0,0,1,1.17.36l3.78,7.16a.94.94,0,0,1-.36,1.17l-19.15,10.13c-7.92,4.19-9.69,10.11-6,17.07s9.58,8.83,17.49,4.64Z" transform="translate(-54.98 -54.98)"/><path class="cls-2" d="M201.63,536.36a1.22,1.22,0,0,1,.1-1.42l4.67-4.1a1.24,1.24,0,0,1,1.43.1l27,30.86a1.24,1.24,0,0,1-.1,1.43l-4.67,4.09a1.23,1.23,0,0,1-1.43-.09l-10.28-11.74-25.75,22.56a.94.94,0,0,1-1.22-.08l-5.34-6.09a.93.93,0,0,1,.09-1.22l25.75-22.56Z" transform="translate(-54.98 -54.98)"/><path class="cls-2" d="M267.33,613.87c-8,11-22,11.71-32.51,4.08s-14.17-21.18-6.19-32.17c7.85-10.82,22-11.72,32.5-4.08S275.18,603.05,267.33,613.87Zm-30.75-22.32c-5.14,7.07-3.12,15.23,3.08,19.73s14.58,3.89,19.72-3.18,3.11-15.24-3.09-19.73S241.71,584.48,236.58,591.55Z" transform="translate(-54.98 -54.98)"/><path class="cls-2" d="M304.15,654.7a.93.93,0,0,1-.59-1.07l11.39-40A.93.93,0,0,1,316,613l17.58,5c13.2,3.76,20.75,14.7,17.13,27.41s-14.27,18.47-28.86,14.32Zm18.23-31.31L315,649.24l9.1,2.59c8.83,2.51,14.91-1.17,17.16-9.09s-2-14.54-9.94-16.8Z" transform="translate(-54.98 -54.98)"/><path class="cls-2" d="M379.76,652l-.49,9.81,25.39,1.26a1.22,1.22,0,0,1,1,1.06l-.3,6.21a1.25,1.25,0,0,1-1.07,1l-34.34-1.71a.94.94,0,0,1-.82-.91l2.07-41.56a.93.93,0,0,1,.91-.82L406,628a1.2,1.2,0,0,1,1,1.06l-.3,6.2a1.25,1.25,0,0,1-1.07,1l-25-1.24-.43,8.8L403,644.94a1.21,1.21,0,0,1,1,1.06l-.3,6.2a1.25,1.25,0,0,1-1.07,1Z" transform="translate(-54.98 -54.98)"/><path class="cls-2" d="M419.85,635.72a1.23,1.23,0,0,1-1.16-.84l-1-6.13a1.22,1.22,0,0,1,.83-1.16L459,621a1.23,1.23,0,0,1,1.16.84l1,6.13a1.23,1.23,0,0,1-.84,1.16L445,631.6l5.54,33.79a.94.94,0,0,1-.72,1l-8,1.31a.94.94,0,0,1-1-.72l-5.54-33.79Z" transform="translate(-54.98 -54.98)"/><path class="cls-2" d="M506.65,641.87l-19.72,7.48-.57,7.25c-.1,1-.28,1.11-1.09,1.41l-8,3a.51.51,0,0,1-.72-.27,2.4,2.4,0,0,1,0-.91l4.17-46.46,7-2.66,33.92,32a2.36,2.36,0,0,1,.58.7.51.51,0,0,1-.36.68l-8,3.05a1.29,1.29,0,0,1-1.75-.34ZM487.46,641l13.37-5.07-6.49-6.11a74.91,74.91,0,0,1-5.57-6.15l-.41.15a74.54,74.54,0,0,1-.1,8.3Z" transform="translate(-54.98 -54.98)"/><path class="cls-2" d="M548.39,627.41a.94.94,0,0,1-.29,1.19l-6.93,4.17a.92.92,0,0,1-1.19-.29l-21.47-35.64a.94.94,0,0,1,.3-1.19l6.93-4.17a.92.92,0,0,1,1.19.29Z" transform="translate(-54.98 -54.98)"/><path class="cls-2" d="M571.53,601.82l16.39-13.73a1.22,1.22,0,0,1,1.42.12l4,4.76a1.23,1.23,0,0,1-.12,1.43L570,613.89a.93.93,0,0,1-1.22-.11L542,581.89a.93.93,0,0,1,.11-1.22l6.2-5.19a.93.93,0,0,1,1.22.1Z" transform="translate(-54.98 -54.98)"/><path class="cls-2" d="M614.06,570.4a.92.92,0,0,1,.08,1.22l-5.32,6.09a.93.93,0,0,1-1.22.09l-31.33-27.38a.94.94,0,0,1-.08-1.22l5.33-6.1a.94.94,0,0,1,1.22-.08Z" transform="translate(-54.98 -54.98)"/><path class="cls-2" d="M649.74,519.25l-30.63,7.65c-3.16.82-7.28,1.41-7.28,1.41l-.11.19,23.48,13.79a.94.94,0,0,1,.31,1.19l-4.1,7a.94.94,0,0,1-1.19.31l-35.87-21.08a.93.93,0,0,1-.31-1.19l3.37-5.73,30.27-7.6a72.57,72.57,0,0,1,7.6-1.4l.15-.25L612,499.73a.93.93,0,0,1-.31-1.19l4.1-7a.92.92,0,0,1,1.18-.31l35.88,21.07a.93.93,0,0,1,.31,1.19Z" transform="translate(-54.98 -54.98)"/><path class="cls-2" d="M657.68,439.35c10.7,3.06,17.29,13.12,13.19,27.5-3.59,12.57-14.9,20.61-28.1,16.85-12.71-3.63-18.68-16.15-15-29.14,4.1-14.37,14.65-17.9,20.87-16.27.42.11.82.53.59,1.36l-2,7.16a1,1,0,0,1-1,.84c-3.55-.19-8.44,2-10.5,9.17a13.77,13.77,0,0,0,9.75,17.43c8.82,2.52,15.44-2.5,17.48-9.66,2.14-7.5-.32-13.08-4.27-14.51l-4.39,15.35a1.21,1.21,0,0,1-1.25.69l-5.27-1.5a1.23,1.23,0,0,1-.7-1.25l7.14-25Z" transform="translate(-54.98 -54.98)"/><path class="cls-2" d="M175.49,382a1.09,1.09,0,0,1-1.17.85l-48.55-7.78a1.1,1.1,0,0,1-.85-1.17l4.46-27.82c1.86-11.63,9.08-16.78,16.92-15.53a12.32,12.32,0,0,1,8.7,5.63l.08,0a13.67,13.67,0,0,1,12.41-4.07c9.69,1.56,14.45,9.66,12.46,22.06Zm-29-19.17,1.85-11.55c.57-3.54-.75-5.05-2.85-5.38s-4,1.09-4.56,4.71l-1.77,11.05Zm19.3,3.09,1.94-12.05c.7-4.38-.73-6.26-3.26-6.66s-4.6,1.17-5.28,5.46l-1.91,11.89Z" transform="translate(-54.98 -54.98)"/><path class="cls-2" d="M184.88,296.78l9.68-20.36a1.45,1.45,0,0,1,1.59-.56l9.56,4.55a1.45,1.45,0,0,1,.56,1.59l-15.84,33.3a1.1,1.1,0,0,1-1.36.49l-44.4-21.12a1.11,1.11,0,0,1-.49-1.37l5.72-12a1.11,1.11,0,0,1,1.37-.48Z" transform="translate(-54.98 -54.98)"/><path class="cls-2" d="M236.84,232.56,221.79,249.1l2.56,5.68a1.54,1.54,0,0,1-.38,2.08l-9.66,10.6a.61.61,0,0,1-.9.11,3.89,3.89,0,0,1-.53-.95l-21.23-50.36,9.66-10.61,52.13,16.4a2.86,2.86,0,0,1,1,.43.61.61,0,0,1,0,.91L244.76,234a1.54,1.54,0,0,1-2,.58ZM216.38,237l7.93-8.71-5.4-1.8c-3.26-1.12-9.44-4.09-9.44-4.09l-.34.38s3.54,5.87,5,9Z" transform="translate(-54.98 -54.98)"/><path class="cls-2" d="M284.83,169.75c-.67.39-1.25.23-1.94-.45-3.51-3.69-8.42-4.5-13.67-1.47-5.84,3.38-8.46,10.61-4.18,18,4.18,7.24,11.7,8.81,17.68,5.35,5.1-3,7-7.31,5.85-12.05a1.53,1.53,0,0,1,.79-2L299.93,171a1.36,1.36,0,0,1,1.93.26c5.17,8.95,2.14,22.63-12.64,31.17-13.6,7.87-29.75,4.49-37.49-8.89-7.6-13.15-2.6-29.06,11-36.92,14-8.12,28-4.64,33.53,5a1.37,1.37,0,0,1-.57,1.91Z" transform="translate(-54.98 -54.98)"/><path class="cls-2" d="M354.5,147.69l25.9,22c.42.34.54.49.59.74a.68.68,0,0,1-.61.83l-16,3.42a2.28,2.28,0,0,1-2-.44l-15.86-13.38-4.79,7.83,2,9.35a1.11,1.11,0,0,1-.79,1.22l-13,2.78a1.12,1.12,0,0,1-1.22-.79l-10.25-48.1a1.08,1.08,0,0,1,.78-1.21l13-2.78a1.09,1.09,0,0,1,1.21.79l4.05,18.95.25,0a38.12,38.12,0,0,1,2.17-4.13l11.49-18.6a2.59,2.59,0,0,1,1.95-1.47l15.2-3.24a.88.88,0,0,1,1.1.64,1.75,1.75,0,0,1-.32,1.38Z" transform="translate(-54.98 -54.98)"/><path class="cls-2" d="M456.79,166l21.82,5.63a1.43,1.43,0,0,1,.86,1.45l-2.64,10.25a1.44,1.44,0,0,1-1.45.86L439.66,175a1.1,1.1,0,0,1-.73-1.25l12.27-47.62a1.09,1.09,0,0,1,1.24-.73l12.9,3.32a1.11,1.11,0,0,1,.74,1.25Z" transform="translate(-54.98 -54.98)"/><path class="cls-2" d="M529.6,204.81l-19.08-11.66-5.1,3.59a1.53,1.53,0,0,1-2.11,0l-12.24-7.47a.62.62,0,0,1-.27-.87,3.52,3.52,0,0,1,.83-.69l45.45-30.35,12.24,7.47-6.26,54.3a2.7,2.7,0,0,1-.25,1.05.6.6,0,0,1-.89.16l-12.24-7.48c-.87-.54-1.07-.86-.95-1.88Zm-8.25-19.24,10,6.14.75-5.64c.48-3.41,2.24-10,2.24-10l-.44-.26s-5.1,4.58-7.92,6.57Z" transform="translate(-54.98 -54.98)"/><path class="cls-2" d="M555.17,233.17a1.1,1.1,0,0,1,.1-1.45l37.23-32.11a1.11,1.11,0,0,1,1.45.1L612.35,221c7.69,8.92,7,17.77,1,23a12.32,12.32,0,0,1-9.91,3l-.06,0a13.66,13.66,0,0,1-4.89,12.11c-7.43,6.41-16.7,4.82-24.89-4.68Zm18.54,2.94,8,9.24c2.89,3.36,5.25,3.48,7.19,1.8s2.07-4.26-.78-7.56l-7.86-9.11Zm14.8-12.77,7.64,8.86c2.34,2.71,4.34,2.68,6,1.28s1.73-3.74-.67-6.52l-7.3-8.47Z" transform="translate(-54.98 -54.98)"/><path class="cls-2" d="M620.46,291.94l-6.24,2.77,11.37,25.59a1.47,1.47,0,0,1-.61,1.58l-9.68,4.29a1.45,1.45,0,0,1-1.57-.6l-17.19-38.7a1.09,1.09,0,0,1,.52-1.35l44.94-20a1.09,1.09,0,0,1,1.35.52l17,38.38a1.45,1.45,0,0,1-.61,1.58l-9.67,4.3a1.47,1.47,0,0,1-1.58-.61l-11.23-25.28L631.54,287,641.73,310a1.45,1.45,0,0,1-.61,1.58l-8.89,4a1.45,1.45,0,0,1-1.58-.61Z" transform="translate(-54.98 -54.98)"/><path class="cls-2" d="M634.14,360.08l3.14,22.32a1.45,1.45,0,0,1-1,1.35l-10.48,1.47a1.45,1.45,0,0,1-1.35-1l-5.14-36.52a1.11,1.11,0,0,1,.87-1.16l48.7-6.85a1.1,1.1,0,0,1,1.15.87l1.86,13.19a1.11,1.11,0,0,1-.88,1.16Z" transform="translate(-54.98 -54.98)"/><path class="cls-2" d="M400,745A345.11,345.11,0,0,1,265.69,82.1,345.11,345.11,0,0,1,534.31,717.9,342.88,342.88,0,0,1,400,745Zm0-640a295,295,0,1,0,208.61,86.41A293.06,293.06,0,0,0,400,105Z" transform="translate(-54.98 -54.98)"/><path class="cls-2" d="M400,602c-111.36,0-202-90.6-202-202s90.6-202,202-202,202,90.6,202,202S511.36,602,400,602ZM400,212c-103.64,0-188,84.32-188,188s84.32,188,188,188,188-84.32,188-188S503.64,212,400,212Z" transform="translate(-54.98 -54.98)"/><path class="cls-2" d="M466.45,397.15c40.35-11.33,51.13-38.51,51.13-67.07,0-31.32-30.49-61.45-103.84-61.45H275.52l33.14,20.12V509.07l-29.79,22.3h156c78.8,0,89.61-45.75,89.61-72.24C524.48,431.38,507.07,397.39,466.45,397.15Z" transform="translate(-54.98 -54.98)"/><path class="cls-1" d="M442.69,387c5.53,1,11.21-.28,16.58-1.92,21.75-6.63,46.41-27.55,34.79-57.29-5.18-13.27-23.1-17.68-35.63-20.77-37.14-9.18-65.15,3.42-88.91,30.54-13.16,15-13.8,34.18-19,47.92-2.22,5.93-10.65,9.06-10.65,9.06s18.86,25.53,17.26,28.94c-2.59,5.52-10.11,11.4-10.11,11.4,6.42,6.59,27.07,19.47,30.28,39.4s.84,32.11.84,32.11l11.61-3.53-3.49-36,7.93-3.11,3.45,36.7,10.69-3.25L404.85,461l7.93-3.1,3.48,37L427,491.56,423.4,455l7.93-3.1,3.51,37.24,11.62-4.26a257.8,257.8,0,0,1-2.87-28.27c-.25-5.35,0-14.1,6.74-16.61,10-3.71,21-9.55,29.4-18.32,10.79-11.22-13.38-9.3-32.53-17.56-10.93-4.7-20.12-16.23-21.85-27.77C430,381.47,435.88,385.85,442.69,387Zm-34.6,5.24c-.88,5.68-3.06,24.59-11.36,32.87s-17.61,8.17-24.17.52c-1.73-2-7.79-12-10.48-17a12.54,12.54,0,0,0-3.29-3.91,12,12,0,0,1-4.29-6.33.77.77,0,0,1,1.12-.87c2.75,1.58,8.83,4.55,12.8,2.64,5.29-2.54,20.29-32.19,32.14-36.08S409,386.58,408.09,392.26Z" transform="translate(-54.98 -54.98)"/></svg>